#!OML:ASF H:\Dans Jumps\Project 1\Capture day 1\Session 1\subject.ASF
:FULLY-SPECIFIED
:DEGREES
128
root 0.550211 17.5123 -13.7636 5.07618 -1.32392 -1.37111
lowerback -2.3068 -0.402552 0.0611993
upperback 2.99837 -0.612035 1.79352
thorax 4.40449 -0.33479 1.78013
lowerneck -14.2308 0.876872 -1.5135
upperneck 31.9822 1.85191 -0.432654
head 13.0569 0.56805 0.375413
rclavicle -1.2921e-015 5.96354e-015
rhumerus -24.7911 -21.0838 -77.5619
rradius 23.0285
rwrist 34.6625
rhand -20.298 -27.531
rfingers 7.12502
rthumb 6.05214 -57.4246
lclavicle -1.2921e-015 5.96354e-015
lhumerus -21.6307 1.67692 87.7868
lradius 17.3672
lwrist 1.16639
lhand -25.9267 -5.85011
lfingers 7.12502
lthumb 0.616516 24.1287
rfemur -12.6771 -1.47631 19.2086
rtibia 23.213
rfoot -14.4931 -2.37198
rtoes 8.41851
lfemur -10.8431 7.77008 -18.5003
ltibia 20.4815
lfoot -12.6896 4.72888
ltoes 2.28321
129
root 0.549268 17.5134 -13.7653 5.0841 -1.34741 -1.34961
lowerback -2.30704 -0.398719 0.0476431
upperback 2.98674 -0.606012 1.79065
thorax 4.39245 -0.332094 1.78512
lowerneck -14.2208 0.886085 -1.51286
upperneck 31.9568 1.87101 -0.45205
head 13.0442 0.57431 0.370465
rclavicle -5.31749e-015 0
rhumerus -24.7962 -21.0638 -77.5654
rradius 23.0241
rwrist 34.6543
rhand -20.3003 -27.5128
rfingers 7.12502
rthumb 6.04989 -57.4064
lclavicle -5.31749e-015 0
lhumerus -21.636 1.69753 87.7703
lradius 17.346
lwrist 1.15049
lhand -25.9673 -5.92306
lfingers 7.12502
lthumb 0.57732 24.0559
rfemur -12.6862 -1.46988 19.1871
rtibia 23.1932
rfoot -14.4779 -2.35412
rtoes 8.44837
lfemur -10.823 7.76191 -18.5227
ltibia 20.4203
lfoot -12.6544 4.74644
ltoes 2.30673
130
root 0.548292 17.5146 -13.767 5.09511 -1.37046 -1.32825
lowerback -2.3086 -0.394539 0.0342747
upperback 2.97332 -0.599523 1.78779
thorax 4.37928 -0.329144 1.79004
lowerneck -14.2124 0.895279 -1.50809
upperneck 31.9361 1.89054 -0.476038
head 13.034 0.580589 0.363113
rclavicle -9.93923e-017 -2.0276e-014
rhumerus -24.8072 -21.0353 -77.5688
rradius 23.0208
rwrist 34.6406
rhand -20.3002 -27.5023
rfingers 7.12502
rthumb 6.05001 -57.396
lclavicle -9.93923e-017 -2.0276e-014
lhumerus -21.6418 1.72606 87.7524
lradius 17.3212
lwrist 1.12685
lhand -25.9722 -5.91309
lfingers 7.12502
lthumb 0.572637 24.0659
rfemur -12.6982 -1.46645 19.1658
rtibia 23.1727
rfoot -14.4639 -2.33295
rtoes 8.47333
lfemur -10.8062 7.75246 -18.5452
ltibia 20.3586
lfoot -12.62 4.76469
ltoes 2.33657
131
root 0.547233 17.5158 -13.7688 5.10281 -1.39318 -1.31204
lowerback -2.30478 -0.389493 0.0266417
upperback 2.9619 -0.592117 1.78524
thorax 4.36503 -0.32556 1.79215
lowerneck -14.2064 0.904649 -1.50991
upperneck 31.9157 1.90816 -0.487599
head 13.0242 0.586879 0.361468
rclavicle -1.93815e-015 -4.77083e-015
rhumerus -24.8182 -21.0018 -77.5745
rradius 23.0206
rwrist 34.6311
rhand -20.2936 -27.5131
rfingers 7.12502
rthumb 6.05639 -57.4065
lclavicle -1.93815e-015 -4.77083e-015
lhumerus -21.6423 1.73942 87.7353
lradius 17.299
lwrist 1.10664
lhand -25.9177 -5.77239
lfingers 7.12502
lthumb 0.625238 24.2064
rfemur -12.7052 -1.46385 19.1504
rtibia 23.1501
rfoot -14.4498 -2.31032
rtoes 8.4984
lfemur -10.7868 7.75012 -18.5613
ltibia 20.2976
lfoot -12.5865 4.77632
ltoes 2.3626
132
root 0.546091 17.517 -13.7707 5.11215 -1.41584 -1.29744
lowerback -2.30078 -0.384242 0.0197738
upperback 2.95095 -0.584481 1.78277
thorax 4.35115 -0.321841 1.79391
lowerneck -14.2068 0.915323 -1.50446
upperneck 31.8995 1.92763 -0.504601
head 13.0177 0.594052 0.356794
rclavicle -3.67752e-015 4.77083e-015
rhumerus -24.8298 -20.9627 -77.5823
rradius 23.0202
rwrist 34.6215
rhand -20.286 -27.5246
rfingers 7.12502
rthumb 6.06368 -57.4179
lclavicle -3.67752e-015 4.77083e-015
lhumerus -21.6415 1.75267 87.7178
lradius 17.2788
lwrist 1.08092
lhand -25.7893 -5.47255
lfingers 7.12502
lthumb 0.749268 24.5059
rfemur -12.7128 -1.46121 19.1372
rtibia 23.1249
rfoot -14.4358 -2.2878
rtoes 8.5186
lfemur -10.771 7.74906 -18.5756
ltibia 20.239
lfoot -12.5554 4.78706
ltoes 2.39151
133
root 0.544903 17.5182 -13.7726 5.12249 -1.43697 -1.28568
lowerback -2.29741 -0.378994 0.01592
upperback 2.94165 -0.577019 1.78035
thorax 4.33933 -0.318125 1.79403
lowerneck -14.2096 0.925572 -1.49486
upperneck 31.8825 1.94612 -0.524044
head 13.0114 0.600974 0.350317
rclavicle -7.10655e-015 4.77083e-015
rhumerus -24.84 -20.9257 -77.5914
rradius 23.0166
rwrist 34.6152
rhand -20.2803 -27.5343
rfingers 7.12502
rthumb 6.06924 -57.4274
lclavicle -7.10655e-015 4.77083e-015
lhumerus -21.6368 1.7658 87.6997
lradius 17.2595
lwrist 1.04975
lhand -25.5752 -4.9845
lfingers 7.12502
lthumb 0.956026 24.9931
rfemur -12.7198 -1.45909 19.1275
rtibia 23.0965
rfoot -14.4212 -2.26575
rtoes 8.54174
lfemur -10.758 7.75051 -18.5867
ltibia 20.1831
lfoot -12.526 4.79457
ltoes 2.41632
